<svg width="511" height="131" viewBox="0 0 511 131" fill="none" xmlns="http://www.w3.org/2000/svg">
<path d="M120.405 130.47L104.376 76.6047C99.1573 59.2708 96.7343 48.6468 96.5479 48.274H95.8024C95.616 48.6468 93.193 59.2708 88.1606 77.9094L73.8088 130.47H38.0227L-2.05562e-06 2.62076e-05H34.8542L49.5787 55.7294C54.6111 74.9272 57.7796 87.7878 57.966 88.1606H58.7116C58.898 87.7878 62.0665 75.6727 65.9806 60.7619L79.0277 12.3015H117.05L129.911 61.1346C133.825 76.0455 136.994 87.7878 137.18 88.1606H137.739C137.926 87.7878 141.281 75.3 146.127 56.8478L161.597 2.62076e-05H192.723L154.7 130.47H120.405ZM258.328 108.849H204.09L196.262 130.47H163.271L213.595 2.62076e-05H249.195L299.706 130.47H266.156L258.328 108.849ZM248.077 80.3324L238.758 54.4247C234.657 43.6143 231.675 35.4134 231.488 35.227H230.929C230.743 35.4134 227.761 43.428 223.66 54.2384L214.341 80.3324H248.077ZM380.003 130.47L344.403 75.4864L328.933 92.8202V130.47H297.621V2.62076e-05H328.933V36.1589V56.2886H329.493L343.658 39.5139L376.648 2.62076e-05H413.925L367.515 52.7473L416.535 130.47H380.003ZM414.126 130.47V2.62076e-05H509.183V29.0762H445.439V51.4426H492.408V77.5366H445.439V101.394H510.115V130.47H414.126Z" fill="white"/>
</svg>
